# xmcd
#
# Track frame offsets: 
#        150
#        25565
#        52963
#        84435
#        113455
#        170975
#        190923
#        229135
#        241550
#        271678
#        290720
#
# Disc length: 4200 seconds
#
# Revision: 2
# Processed by: cddbd v1.5.2PL0 Copyright (c) Steve Scherf et al.
# Submitted via: ExactAudioCopy v0.95b4
#
DISCID=8510660b
DTITLE=Freddy King - Key To The Highway
DYEAR=1995
DGENRE=Blues
TTITLE0=Key To The Highway
TTITLE1=Sweet Home Chicago
TTITLE2=Got My Mojo Working
TTITLE3=Big Legged Woman
TTITLE4=Have You Ever Loved A Woman
TTITLE5=Hideaway
TTITLE6=Boogie Chillun
TTITLE7=Whole Lotta Lovin'
TTITLE8=Have You Ever Loved A Woman
TTITLE9=Look On Yonders Wall
TTITLE10=It Ain't Nobody's Business
EXTD=
EXTT0=
EXTT1=
EXTT2=
EXTT3=
EXTT4=
EXTT5=
EXTT6=
EXTT7=
EXTT8=
EXTT9=
EXTT10=
PLAYORDER=
